<svg width="27" height="20" viewBox="0 0 27 20" fill="none" xmlns="http://www.w3.org/2000/svg">
<path d="M4.95433 18.3613C4.95433 18.1501 5.03822 17.9476 5.18754 17.7983C5.33686 17.649 5.53939 17.5651 5.75057 17.5651H21.6753C21.8865 17.5651 22.089 17.649 22.2383 17.7983C22.3877 17.9476 22.4715 18.1501 22.4715 18.3613C22.4715 18.5725 22.3877 18.775 22.2383 18.9243C22.089 19.0737 21.8865 19.1575 21.6753 19.1575H5.75057C5.53939 19.1575 5.33686 19.0737 5.18754 18.9243C5.03822 18.775 4.95433 18.5725 4.95433 18.3613ZM4.15809 0.0478516H23.2678C23.2678 0.0478516 26.4527 0.0478516 26.4527 3.2328V12.7876C26.4527 12.7876 26.4527 15.9726 23.2678 15.9726H4.15809C4.15809 15.9726 0.973145 15.9726 0.973145 12.7876V3.2328C0.973145 3.2328 0.973145 0.0478516 4.15809 0.0478516Z" fill="#AC8600"/>
</svg>
