<svg width="28" height="15" viewBox="0 0 28 15" fill="none" xmlns="http://www.w3.org/2000/svg">
<path d="M0.850586 3.35623C0.850586 2.47633 1.20012 1.63247 1.8223 1.01029C2.44449 0.388112 3.28834 0.0385742 4.16824 0.0385742H24.0742C24.9541 0.0385742 25.7979 0.388112 26.4201 1.01029C27.0423 1.63247 27.3918 2.47633 27.3918 3.35623V11.6504C27.3918 12.5303 27.0423 13.3741 26.4201 13.9963C25.7979 14.6185 24.9541 14.968 24.0742 14.968H4.16824C3.28834 14.968 2.44449 14.6185 1.8223 13.9963C1.20012 13.3741 0.850586 12.5303 0.850586 11.6504V3.35623ZM22.4153 3.77093V4.60035C22.4153 4.82927 22.6011 5.01506 22.83 5.01506H23.6595C23.7694 5.01506 23.8749 4.97136 23.9527 4.89359C24.0305 4.81582 24.0742 4.71034 24.0742 4.60035V3.77093C24.0742 3.66095 24.0305 3.55547 23.9527 3.47769C23.8749 3.39992 23.7694 3.35623 23.6595 3.35623H22.83C22.7201 3.35623 22.6146 3.39992 22.5368 3.47769C22.459 3.55547 22.4153 3.66095 22.4153 3.77093ZM4.58295 6.67388C4.47296 6.67388 4.36748 6.71757 4.2897 6.79535C4.21193 6.87312 4.16824 6.9786 4.16824 7.08859V7.918C4.16824 8.14692 4.35403 8.33271 4.58295 8.33271H5.41236C5.52235 8.33271 5.62783 8.28902 5.7056 8.21124C5.78337 8.13347 5.82707 8.02799 5.82707 7.918V7.08859C5.82707 6.9786 5.78337 6.87312 5.7056 6.79535C5.62783 6.71757 5.52235 6.67388 5.41236 6.67388H4.58295ZM7.48589 7.08859V7.918C7.48589 8.14692 7.67168 8.33271 7.9006 8.33271H8.73001C8.84 8.33271 8.94548 8.28902 9.02326 8.21124C9.10103 8.13347 9.14472 8.02799 9.14472 7.918V7.08859C9.14472 6.9786 9.10103 6.87312 9.02326 6.79535C8.94548 6.71757 8.84 6.67388 8.73001 6.67388H7.9006C7.79061 6.67388 7.68513 6.71757 7.60736 6.79535C7.52959 6.87312 7.48589 6.9786 7.48589 7.08859ZM11.2183 6.67388C11.1083 6.67388 11.0028 6.71757 10.925 6.79535C10.8472 6.87312 10.8035 6.9786 10.8035 7.08859V7.918C10.8035 8.14692 10.9893 8.33271 11.2183 8.33271H12.0477C12.1577 8.33271 12.2631 8.28902 12.3409 8.21124C12.4187 8.13347 12.4624 8.02799 12.4624 7.918V7.08859C12.4624 6.9786 12.4187 6.87312 12.3409 6.79535C12.2631 6.71757 12.1577 6.67388 12.0477 6.67388H11.2183ZM14.1212 7.08859V7.918C14.1212 8.14692 14.307 8.33271 14.5359 8.33271H15.3653C15.4753 8.33271 15.5808 8.28902 15.6586 8.21124C15.7363 8.13347 15.78 8.02799 15.78 7.918V7.08859C15.78 6.9786 15.7363 6.87312 15.6586 6.79535C15.5808 6.71757 15.4753 6.67388 15.3653 6.67388H14.5359C14.4259 6.67388 14.3204 6.71757 14.2427 6.79535C14.1649 6.87312 14.1212 6.9786 14.1212 7.08859ZM22.83 6.67388C22.7201 6.67388 22.6146 6.71757 22.5368 6.79535C22.459 6.87312 22.4153 6.9786 22.4153 7.08859V7.918C22.4153 8.14692 22.6011 8.33271 22.83 8.33271H23.6595C23.7694 8.33271 23.8749 8.28902 23.9527 8.21124C24.0305 8.13347 24.0742 8.02799 24.0742 7.918V7.08859C24.0742 6.9786 24.0305 6.87312 23.9527 6.79535C23.8749 6.71757 23.7694 6.67388 23.6595 6.67388H22.83ZM22.83 9.99154C22.7201 9.99154 22.6146 10.0352 22.5368 10.113C22.459 10.1908 22.4153 10.2963 22.4153 10.4062V11.2357C22.4153 11.4646 22.6011 11.6504 22.83 11.6504H23.6595C23.7694 11.6504 23.8749 11.6067 23.9527 11.5289C24.0305 11.4511 24.0742 11.3456 24.0742 11.2357V10.4062C24.0742 10.2963 24.0305 10.1908 23.9527 10.113C23.8749 10.0352 23.7694 9.99154 23.6595 9.99154H22.83ZM17.8536 6.67388C17.7436 6.67388 17.6381 6.71757 17.5603 6.79535C17.4825 6.87312 17.4389 6.9786 17.4389 7.08859V7.918C17.4389 8.14692 17.6246 8.33271 17.8536 8.33271H20.3418C20.4518 8.33271 20.5573 8.28902 20.635 8.21124C20.7128 8.13347 20.7565 8.02799 20.7565 7.918V7.08859C20.7565 6.9786 20.7128 6.87312 20.635 6.79535C20.5573 6.71757 20.4518 6.67388 20.3418 6.67388H17.8536ZM19.0977 10.4062V11.2357C19.0977 11.4646 19.2835 11.6504 19.5124 11.6504H20.3418C20.4518 11.6504 20.5573 11.6067 20.635 11.5289C20.7128 11.4511 20.7565 11.3456 20.7565 11.2357V10.4062C20.7565 10.2963 20.7128 10.1908 20.635 10.113C20.5573 10.0352 20.4518 9.99154 20.3418 9.99154H19.5124C19.4024 9.99154 19.2969 10.0352 19.2191 10.113C19.1414 10.1908 19.0977 10.2963 19.0977 10.4062ZM19.5124 3.35623C19.4024 3.35623 19.2969 3.39992 19.2191 3.47769C19.1414 3.55547 19.0977 3.66095 19.0977 3.77093V4.60035C19.0977 4.82927 19.2835 5.01506 19.5124 5.01506H20.3418C20.4518 5.01506 20.5573 4.97136 20.635 4.89359C20.7128 4.81582 20.7565 4.71034 20.7565 4.60035V3.77093C20.7565 3.66095 20.7128 3.55547 20.635 3.47769C20.5573 3.39992 20.4518 3.35623 20.3418 3.35623H19.5124ZM15.78 3.77093V4.60035C15.78 4.82927 15.9658 5.01506 16.1947 5.01506H17.0241C17.1341 5.01506 17.2396 4.97136 17.3174 4.89359C17.3952 4.81582 17.4389 4.71034 17.4389 4.60035V3.77093C17.4389 3.66095 17.3952 3.55547 17.3174 3.47769C17.2396 3.39992 17.1341 3.35623 17.0241 3.35623H16.1947C16.0847 3.35623 15.9793 3.39992 15.9015 3.47769C15.8237 3.55547 15.78 3.66095 15.78 3.77093ZM12.8771 3.35623C12.7671 3.35623 12.6616 3.39992 12.5838 3.47769C12.5061 3.55547 12.4624 3.66095 12.4624 3.77093V4.60035C12.4624 4.82927 12.6482 5.01506 12.8771 5.01506H13.7065C13.8165 5.01506 13.922 4.97136 13.9997 4.89359C14.0775 4.81582 14.1212 4.71034 14.1212 4.60035V3.77093C14.1212 3.66095 14.0775 3.55547 13.9997 3.47769C13.922 3.39992 13.8165 3.35623 13.7065 3.35623H12.8771ZM9.14472 3.77093V4.60035C9.14472 4.82927 9.33051 5.01506 9.55943 5.01506H10.3888C10.4988 5.01506 10.6043 4.97136 10.6821 4.89359C10.7599 4.81582 10.8035 4.71034 10.8035 4.60035V3.77093C10.8035 3.66095 10.7599 3.55547 10.6821 3.47769C10.6043 3.39992 10.4988 3.35623 10.3888 3.35623H9.55943C9.44944 3.35623 9.34396 3.39992 9.26618 3.47769C9.18841 3.55547 9.14472 3.66095 9.14472 3.77093ZM4.58295 3.35623C4.47296 3.35623 4.36748 3.39992 4.2897 3.47769C4.21193 3.55547 4.16824 3.66095 4.16824 3.77093V4.60035C4.16824 4.82927 4.35403 5.01506 4.58295 5.01506H7.07119C7.18117 5.01506 7.28666 4.97136 7.36443 4.89359C7.4422 4.81582 7.48589 4.71034 7.48589 4.60035V3.77093C7.48589 3.66095 7.4422 3.55547 7.36443 3.47769C7.28666 3.39992 7.18117 3.35623 7.07119 3.35623H4.58295ZM4.16824 10.4062V11.2357C4.16824 11.4646 4.35403 11.6504 4.58295 11.6504H5.41236C5.52235 11.6504 5.62783 11.6067 5.7056 11.5289C5.78337 11.4511 5.82707 11.3456 5.82707 11.2357V10.4062C5.82707 10.2963 5.78337 10.1908 5.7056 10.113C5.62783 10.0352 5.52235 9.99154 5.41236 9.99154H4.58295C4.47296 9.99154 4.36748 10.0352 4.2897 10.113C4.21193 10.1908 4.16824 10.2963 4.16824 10.4062ZM7.9006 9.99154C7.79061 9.99154 7.68513 10.0352 7.60736 10.113C7.52959 10.1908 7.48589 10.2963 7.48589 10.4062V11.2357C7.48589 11.4646 7.67168 11.6504 7.9006 11.6504H17.0241C17.1341 11.6504 17.2396 11.6067 17.3174 11.5289C17.3952 11.4511 17.4389 11.3456 17.4389 11.2357V10.4062C17.4389 10.2963 17.3952 10.1908 17.3174 10.113C17.2396 10.0352 17.1341 9.99154 17.0241 9.99154H7.9006Z" fill="#020545"/>
</svg>
