<svg width="16" height="25" viewBox="0 0 16 25" fill="none" xmlns="http://www.w3.org/2000/svg">
<path d="M4.18598 0.924805C3.56654 0.924805 2.97246 1.17088 2.53444 1.60889C2.09643 2.04691 1.85035 2.64099 1.85035 3.26043V4.76691C2.39105 4.5497 2.98313 4.42825 3.60208 4.42825H10.609C11.2092 4.42754 11.804 4.54253 12.3607 4.76691V3.26043C12.3607 2.64099 12.1146 2.04691 11.6766 1.60889C11.2386 1.17088 10.6445 0.924805 10.0251 0.924805H4.18598ZM3.60208 5.59606C2.6729 5.59606 1.78179 5.96517 1.12477 6.6222C0.467745 7.27922 0.0986328 8.17033 0.0986328 9.0995V16.1064C0.0986328 17.0356 0.467745 17.9267 1.12477 18.5837C1.78179 19.2407 2.6729 19.6098 3.60208 19.6098H10.609C11.5381 19.6098 12.4292 19.2407 13.0863 18.5837C13.7433 17.9267 14.1124 17.0356 14.1124 16.1064V13.7708C14.4221 13.7708 14.7192 13.6477 14.9382 13.4287C15.1572 13.2097 15.2802 12.9127 15.2802 12.6029V11.4351C15.2802 11.1254 15.1572 10.8284 14.9382 10.6094C14.7192 10.3904 14.4221 10.2673 14.1124 10.2673V9.0995C14.1124 8.17033 13.7433 7.27922 13.0863 6.6222C12.4292 5.96517 11.5381 5.59606 10.609 5.59606H3.60208ZM3.60208 20.7776C3.00183 20.7784 2.40708 20.6634 1.85035 20.439V21.9455C1.85035 22.5649 2.09643 23.159 2.53444 23.597C2.97246 24.035 3.56654 24.2811 4.18598 24.2811H10.0251C10.6445 24.2811 11.2386 24.035 11.6766 23.597C12.1146 23.159 12.3607 22.5649 12.3607 21.9455V20.439C11.804 20.6634 11.2092 20.7784 10.609 20.7776H3.60208Z" fill="black"/>
</svg>
