<svg width="32" height="24" viewBox="0 0 32 24" fill="none" xmlns="http://www.w3.org/2000/svg">
<path d="M30.9341 11.6847C29.5542 5.44597 27.4774 2.11615 24.3968 1.20659C23.7492 1.01665 23.0775 0.921752 22.4027 0.92488C21.5107 0.92488 20.7339 1.14218 19.9122 1.3725C18.9219 1.65031 17.797 1.96586 16.1568 1.96586C14.5166 1.96586 13.3911 1.65096 12.3989 1.37315C11.5765 1.14218 10.8004 0.92488 9.91098 0.92488C9.21315 0.92246 8.51837 1.01705 7.84659 1.20594C4.78222 2.11159 2.70677 5.44011 1.30666 11.6808C-0.198849 18.3964 0.542195 22.6364 3.38471 23.6201C3.77435 23.7574 4.18431 23.8283 4.59745 23.8296C6.54472 23.8296 8.10619 22.2076 9.17319 20.8797C10.3788 19.3768 11.7899 18.6143 16.1568 18.6143C20.0572 18.6143 21.6714 19.1433 23.0657 20.8797C23.942 21.9715 24.7703 22.7353 25.5965 23.2161C26.6954 23.855 27.7936 23.9968 28.86 23.6305C30.5399 23.0573 31.5028 21.5421 31.7227 19.1257C31.8899 17.2728 31.6322 14.8388 30.9341 11.6847ZM13.0339 11.3346H10.952V13.4166C10.952 13.6927 10.8423 13.9574 10.6471 14.1527C10.4518 14.3479 10.1871 14.4576 9.91098 14.4576C9.63489 14.4576 9.37012 14.3479 9.1749 14.1527C8.97968 13.9574 8.87 13.6927 8.87 13.4166V11.3346H6.78805C6.51197 11.3346 6.24719 11.225 6.05197 11.0297C5.85675 10.8345 5.74708 10.5697 5.74708 10.2937C5.74708 10.0176 5.85675 9.7528 6.05197 9.55758C6.24719 9.36236 6.51197 9.25269 6.78805 9.25269H8.87V7.17073C8.87 6.89465 8.97968 6.62987 9.1749 6.43465C9.37012 6.23943 9.63489 6.12976 9.91098 6.12976C10.1871 6.12976 10.4518 6.23943 10.6471 6.43465C10.8423 6.62987 10.952 6.89465 10.952 7.17073V9.25269H13.0339C13.31 9.25269 13.5748 9.36236 13.77 9.55758C13.9652 9.7528 14.0749 10.0176 14.0749 10.2937C14.0749 10.5697 13.9652 10.8345 13.77 11.0297C13.5748 11.225 13.31 11.3346 13.0339 11.3346ZM18.499 11.5949C18.2417 11.5949 17.9901 11.5186 17.7761 11.3756C17.5621 11.2326 17.3953 11.0294 17.2969 10.7916C17.1984 10.5539 17.1726 10.2922 17.2228 10.0398C17.273 9.78739 17.3969 9.55554 17.5789 9.37356C17.7609 9.19158 17.9928 9.06765 18.2452 9.01744C18.4976 8.96724 18.7592 8.99301 18.997 9.09149C19.2348 9.18998 19.438 9.35676 19.581 9.57074C19.7239 9.78473 19.8003 10.0363 19.8003 10.2937C19.8003 10.6388 19.6632 10.9697 19.4191 11.2138C19.1751 11.4578 18.8441 11.5949 18.499 11.5949ZM21.3617 14.4576C21.1042 14.4576 20.8525 14.3812 20.6385 14.238C20.4244 14.0949 20.2576 13.8915 20.1592 13.6535C20.0608 13.4156 20.0353 13.1538 20.0857 12.9013C20.1362 12.6488 20.2605 12.4169 20.4428 12.2351C20.6251 12.0532 20.8572 11.9296 21.1099 11.8797C21.3625 11.8299 21.6242 11.8561 21.8619 11.9551C22.0996 12.0541 22.3026 12.2214 22.4452 12.4358C22.5878 12.6502 22.6636 12.9021 22.6629 13.1596C22.6621 13.5041 22.5246 13.8343 22.2807 14.0776C22.0367 14.3209 21.7063 14.4576 21.3617 14.4576ZM21.3617 8.7322C21.1044 8.7322 20.8528 8.65588 20.6388 8.5129C20.4248 8.36992 20.258 8.1667 20.1595 7.92893C20.0611 7.69117 20.0353 7.42953 20.0855 7.17712C20.1357 6.92471 20.2596 6.69286 20.4416 6.51088C20.6236 6.3289 20.8554 6.20497 21.1079 6.15476C21.3603 6.10455 21.6219 6.13032 21.8597 6.22881C22.0974 6.32729 22.3007 6.49407 22.4436 6.70806C22.5866 6.92204 22.6629 7.17362 22.6629 7.43098C22.6629 7.77608 22.5258 8.10705 22.2818 8.35108C22.0378 8.59511 21.7068 8.7322 21.3617 8.7322ZM24.2244 11.5949C23.967 11.5949 23.7155 11.5186 23.5015 11.3756C23.2875 11.2326 23.1207 11.0294 23.0222 10.7916C22.9237 10.5539 22.898 10.2922 22.9482 10.0398C22.9984 9.78739 23.1223 9.55554 23.3043 9.37356C23.4863 9.19158 23.7181 9.06765 23.9705 9.01744C24.223 8.96724 24.4846 8.99301 24.7224 9.09149C24.9601 9.18998 25.1633 9.35676 25.3063 9.57074C25.4493 9.78473 25.5256 10.0363 25.5256 10.2937C25.5256 10.6388 25.3885 10.9697 25.1445 11.2138C24.9005 11.4578 24.5695 11.5949 24.2244 11.5949Z" fill="#137C37"/>
</svg>
