<svg width="20" height="25" viewBox="0 0 20 25" fill="none" xmlns="http://www.w3.org/2000/svg">
<path d="M13.7889 11.8155C14.6836 12.7129 15.1861 13.9283 15.1861 15.1955C15.1861 16.4627 14.6836 17.6782 13.7889 18.5756C12.8915 19.4703 11.676 19.9728 10.4088 19.9728C9.14165 19.9728 7.92615 19.4703 7.02882 18.5756L13.7889 11.8155ZM3.24271 0.863281H17.575C18.2085 0.863281 18.8161 1.11495 19.2641 1.56292C19.712 2.01089 19.9637 2.61847 19.9637 3.25199V22.3617C19.9637 22.9952 19.712 23.6028 19.2641 24.0508C18.8161 24.4987 18.2085 24.7504 17.575 24.7504H3.24271C2.60919 24.7504 2.00161 24.4987 1.55364 24.0508C1.10567 23.6028 0.854004 22.9952 0.854004 22.3617V3.25199C0.854004 2.61847 1.10567 2.01089 1.55364 1.56292C2.00161 1.11495 2.60919 0.863281 3.24271 0.863281ZM4.43707 3.25199C4.12031 3.25199 3.81652 3.37783 3.59253 3.60181C3.36855 3.8258 3.24271 4.12958 3.24271 4.44635C3.24271 4.76311 3.36855 5.0669 3.59253 5.29088C3.81652 5.51487 4.12031 5.6407 4.43707 5.6407C4.75383 5.6407 5.05762 5.51487 5.28161 5.29088C5.50559 5.0669 5.63143 4.76311 5.63143 4.44635C5.63143 4.12958 5.50559 3.8258 5.28161 3.60181C5.05762 3.37783 4.75383 3.25199 4.43707 3.25199ZM8.02014 3.25199C7.70337 3.25199 7.39958 3.37783 7.1756 3.60181C6.95161 3.8258 6.82578 4.12958 6.82578 4.44635C6.82578 4.76311 6.95161 5.0669 7.1756 5.29088C7.39958 5.51487 7.70337 5.6407 8.02014 5.6407C8.3369 5.6407 8.64069 5.51487 8.86467 5.29088C9.08866 5.0669 9.21449 4.76311 9.21449 4.44635C9.21449 4.12958 9.08866 3.8258 8.86467 3.60181C8.64069 3.37783 8.3369 3.25199 8.02014 3.25199ZM10.4088 8.02941C8.50827 8.02941 6.68554 8.78441 5.34163 10.1283C3.99772 11.4722 3.24271 13.295 3.24271 15.1955C3.24271 17.0961 3.99772 18.9189 5.34163 20.2628C6.68554 21.6067 8.50827 22.3617 10.4088 22.3617C12.3094 22.3617 14.1322 21.6067 15.4761 20.2628C16.82 18.9189 17.575 17.0961 17.575 15.1955C17.575 13.295 16.82 11.4722 15.4761 10.1283C14.1322 8.78441 12.3094 8.02941 10.4088 8.02941Z" fill="#827B7B"/>
</svg>
