<svg width="16" height="25" viewBox="0 0 16 25" fill="none" xmlns="http://www.w3.org/2000/svg">
<path d="M0.916504 3.84434C0.916504 3.07003 1.2241 2.32744 1.77162 1.77992C2.31913 1.2324 3.06173 0.924805 3.83604 0.924805L12.5946 0.924805C13.369 0.924805 14.1115 1.2324 14.6591 1.77992C15.2066 2.32744 15.5142 3.07003 15.5142 3.84434V21.3616C15.5142 22.1359 15.2066 22.8785 14.6591 23.426C14.1115 23.9735 13.369 24.2811 12.5946 24.2811H3.83604C3.06173 24.2811 2.31913 23.9735 1.77162 23.426C1.2241 22.8785 0.916504 22.1359 0.916504 21.3616V3.84434ZM9.67511 19.9018C9.67511 19.5146 9.52131 19.1433 9.24755 18.8696C8.97379 18.5958 8.6025 18.442 8.21534 18.442C7.82819 18.442 7.45689 18.5958 7.18313 18.8696C6.90937 19.1433 6.75557 19.5146 6.75557 19.9018C6.75557 20.2889 6.90937 20.6602 7.18313 20.934C7.45689 21.2078 7.82819 21.3616 8.21534 21.3616C8.6025 21.3616 8.97379 21.2078 9.24755 20.934C9.52131 20.6602 9.67511 20.2889 9.67511 19.9018Z" fill="#EC1B5A"/>
</svg>
