<svg width="30" height="27" viewBox="0 0 30 27" fill="none" xmlns="http://www.w3.org/2000/svg">
<path d="M29.7114 13.2016L26.2545 5.13554C26.1658 4.92821 26.0181 4.75151 25.8299 4.62737C25.6416 4.50323 25.421 4.43712 25.1955 4.43724H21.7386V2.13265C21.7386 1.82704 21.6172 1.53395 21.4011 1.31785C21.185 1.10175 20.8919 0.980347 20.5863 0.980347H2.14954V3.28494H19.434V17.7532C18.909 18.0581 18.4494 18.4639 18.082 18.9473C17.7145 19.4306 17.4464 19.9819 17.2931 20.5694H10.052C9.77155 19.4832 9.10456 18.5366 8.17606 17.9069C7.24756 17.2773 6.1213 17.0079 5.0084 17.1493C3.89549 17.2906 2.87234 17.833 2.13074 18.6748C1.38913 19.5165 0.97998 20.5999 0.97998 21.7217C0.97998 22.8436 1.38913 23.9269 2.13074 24.7687C2.87234 25.6104 3.89549 26.1528 5.0084 26.2942C6.1213 26.4355 7.24756 26.1662 8.17606 25.5365C9.10456 24.9069 9.77155 23.9602 10.052 22.874H17.2931C17.5437 23.863 18.117 24.7401 18.9221 25.3666C19.7273 25.9932 20.7184 26.3334 21.7386 26.3334C22.7588 26.3334 23.7499 25.9932 24.5551 25.3666C25.3603 24.7401 25.9335 23.863 26.1842 22.874H28.6524C28.958 22.874 29.2511 22.7526 29.4672 22.5365C29.6833 22.3204 29.8047 22.0273 29.8047 21.7217V13.6556C29.8048 13.4995 29.773 13.3451 29.7114 13.2016ZM5.60644 24.0263C5.15063 24.0263 4.70506 23.8912 4.32608 23.6379C3.94709 23.3847 3.6517 23.0248 3.47727 22.6037C3.30284 22.1825 3.2572 21.7192 3.34613 21.2721C3.43505 20.8251 3.65454 20.4144 3.97684 20.0921C4.29915 19.7698 4.70979 19.5503 5.15684 19.4614C5.60388 19.3725 6.06726 19.4181 6.48837 19.5926C6.90948 19.767 7.26941 20.0624 7.52264 20.4414C7.77588 20.8203 7.91104 21.2659 7.91104 21.7217C7.91043 22.3328 7.66743 22.9186 7.23536 23.3506C6.8033 23.7827 6.21747 24.0257 5.60644 24.0263ZM21.7386 6.74184H24.435L26.9055 12.5033H21.7386V6.74184ZM21.7386 24.0263C21.2828 24.0263 20.8372 23.8912 20.4583 23.6379C20.0793 23.3847 19.7839 23.0248 19.6095 22.6037C19.435 22.1825 19.3894 21.7192 19.4783 21.2721C19.5672 20.8251 19.7867 20.4144 20.109 20.0921C20.4313 19.7698 20.842 19.5503 21.289 19.4614C21.7361 19.3725 22.1994 19.4181 22.6206 19.5926C23.0417 19.767 23.4016 20.0624 23.6548 20.4414C23.9081 20.8203 24.0432 21.2659 24.0432 21.7217C24.0426 22.3328 23.7996 22.9186 23.3675 23.3506C22.9355 23.7827 22.3497 24.0257 21.7386 24.0263ZM27.5001 20.5694H26.1842C25.9304 19.5824 25.3562 18.7075 24.5517 18.0819C23.7471 17.4563 22.7578 17.1154 21.7386 17.1125V14.8079H27.5001V20.5694Z" fill="#EF8506"/>
</svg>
