<svg width="7" height="16" viewBox="0 0 7 16" fill="none" xmlns="http://www.w3.org/2000/svg">
<path d="M1.66338 0.602867C1.79996 0.602327 1.9349 0.637332 2.0583 0.705308C2.1817 0.773284 2.29041 0.872505 2.37646 0.995678L6.79203 7.36557C6.92649 7.55554 7 7.79382 7 8.03972C7 8.28562 6.92649 8.5239 6.79203 8.71387L2.22104 15.0838C2.06587 15.3006 1.84288 15.4369 1.60115 15.4628C1.35941 15.4887 1.11872 15.402 0.932023 15.2218C0.745328 15.0416 0.627923 14.7826 0.605635 14.5019C0.583347 14.2212 0.658002 13.9417 0.813177 13.7249L4.89964 8.03441L0.950308 2.34397C0.838517 2.18814 0.767505 1.99838 0.745674 1.79714C0.723844 1.59591 0.752108 1.39162 0.827123 1.20846C0.902138 1.02529 1.02076 0.870918 1.16897 0.763596C1.31717 0.656273 1.48874 0.600497 1.66338 0.602867Z" fill="#281601"/>
</svg>
