<svg width="22" height="20" viewBox="0 0 22 20" fill="none" xmlns="http://www.w3.org/2000/svg">
<path d="M20.3291 0.0478516C20.6106 0.0478516 20.8807 0.159704 21.0798 0.358801C21.2788 0.557899 21.3907 0.827934 21.3907 1.1095V8.54105C21.3907 8.82261 21.2788 9.09265 21.0798 9.29174C20.8807 9.49084 20.6106 9.60269 20.3291 9.60269H18.2047L18.2058 18.0959C18.2058 18.3775 18.0939 18.6475 17.8948 18.8466C17.6957 19.0457 17.4257 19.1575 17.1441 19.1575H4.40431C4.12274 19.1575 3.85271 19.0457 3.65361 18.8466C3.45451 18.6475 3.34266 18.3775 3.34266 18.0959L3.3416 9.60163L1.21936 9.60269C0.937797 9.60269 0.667762 9.49084 0.468665 9.29174C0.269567 9.09265 0.157715 8.82261 0.157715 8.54105V1.1095C0.157715 0.827934 0.269567 0.557899 0.468665 0.358801C0.667762 0.159704 0.937797 0.0478516 1.21936 0.0478516H7.58926C7.58926 0.892552 7.92481 1.70266 8.52211 2.29995C9.1194 2.89724 9.92951 3.2328 10.7742 3.2328C11.6189 3.2328 12.429 2.89724 13.0263 2.29995C13.6236 1.70266 13.9592 0.892552 13.9592 0.0478516H20.3291Z" fill="#B30EAC"/>
</svg>
