<svg width="30" height="24" viewBox="0 0 30 24" fill="none" xmlns="http://www.w3.org/2000/svg">
<path d="M0.703613 7.50705C0.703613 7.17847 0.800523 6.85888 0.982146 6.58431L4.38332 1.48314C4.58057 1.18703 4.84795 0.944269 5.16167 0.776451C5.4754 0.608632 5.82574 0.520963 6.18153 0.521241H24.0332C24.7579 0.521241 25.4285 0.88228 25.8291 1.48314L29.232 6.58431C29.4121 6.85888 29.5111 7.17847 29.5111 7.50705C29.5111 8.42079 28.7684 9.16348 27.8547 9.16348H2.36184C1.44631 9.16348 0.703613 8.42079 0.703613 7.50705ZM3.58436 10.6039H6.46511V17.8057H15.1073V10.6039H17.9881V21.4067C17.9881 22.5995 17.0203 23.5672 15.8275 23.5672H5.74492C4.55166 23.5672 3.58436 22.5995 3.58436 21.4067V10.6039ZM23.7496 10.6039H26.6303V22.1268C26.6303 22.9235 25.9867 23.5672 25.19 23.5672C24.3933 23.5672 23.7496 22.9235 23.7496 22.1268V10.6039Z" fill="#EF8506"/>
</svg>
