<svg width="7" height="16" viewBox="0 0 7 16" fill="none" xmlns="http://www.w3.org/2000/svg">
<path d="M5.36347 15.4679C5.2269 15.4685 5.09195 15.4335 4.96856 15.3655C4.84516 15.2975 4.73644 15.1983 4.6504 15.0751L0.234824 8.70523C0.100363 8.51526 0.0268554 8.27699 0.0268554 8.03108C0.0268554 7.78518 0.100363 7.5469 0.234824 7.35693L4.80581 0.987039C4.96099 0.770232 5.18397 0.633891 5.42571 0.608008C5.66745 0.582125 5.90814 0.668822 6.09483 0.849024C6.28153 1.02923 6.39893 1.28818 6.42122 1.5689C6.44351 1.84963 6.36885 2.12914 6.21368 2.34595L2.12721 8.03639L6.07655 13.7268C6.18834 13.8827 6.25935 14.0724 6.28118 14.2737C6.30301 14.4749 6.27475 14.6792 6.19973 14.8623C6.12472 15.0455 6.00609 15.1999 5.85789 15.3072C5.70969 15.4145 5.53812 15.4703 5.36347 15.4679Z" fill="#281601"/>
</svg>
